<svg xmlns="http://www.w3.org/2000/svg" width="179" height="52" viewBox="0 0 179 52">
    <g fill="#03F" fill-rule="evenodd">
      <path d="M153.978 11.617c-1.076 0-1.952.875-1.952 1.95v.07c0 1.075.876 1.95 1.952 1.95 1.077 0 1.952-.875 1.952-1.95v-.07c0-1.075-.875-1.95-1.952-1.95M90.934 23.96c.28.65.42 1.415.42 2.272 0 .857-.14 1.622-.42 2.273-.278.651-.663 1.2-1.141 1.633-.478.431-1.027.756-1.632.965-.603.209-1.227.315-1.855.315-.72 0-1.387-.142-1.983-.422-.593-.279-1.112-.657-1.543-1.122-.431-.466-.768-1.021-1-1.649-.231-.627-.35-1.297-.35-1.993 0-.695.119-1.372.35-2.01.233-.64.57-1.2 1-1.666.43-.465.949-.842 1.543-1.122.594-.28 1.262-.422 1.983-.422.628 0 1.252.106 1.855.315.606.21 1.155.54 1.633.983.478.444.862.999 1.14 1.65zm-4.868-6.128c-1.288 0-2.45.235-3.451.696-1.004.463-1.856 1.086-2.531 1.852-.677.768-1.203 1.671-1.563 2.685-.362 1.017-.546 2.083-.546 3.167 0 1.084.184 2.143.546 3.15.36 1.003.886 1.9 1.563 2.669.676.766 1.528 1.389 2.53 1.85 1.003.462 2.164.696 3.452.696 1.017 0 1.971-.171 2.837-.509.866-.337 1.589-.803 2.15-1.387l.164-.171v1.62h3.456V18.28h-3.456v1.62l-.164-.171c-.56-.583-1.283-1.05-2.15-1.388-.868-.337-1.823-.509-2.837-.509zM100.828 14.255h-3.455V29.26c0 1.478.498 2.675 1.481 3.557.987.886 2.493 1.335 4.477 1.335h2.519v-3.008h-2.485c-1.683 0-2.537-.842-2.537-2.503v-7.353h5.022v-3.008h-5.022v-4.024M119.886 23.96c.279.652.42 1.416.42 2.272 0 .856-.141 1.62-.42 2.273-.28.651-.663 1.2-1.142 1.633-.478.431-1.027.756-1.632.965-.603.209-1.227.315-1.854.315-.721 0-1.388-.142-1.984-.422-.593-.279-1.112-.657-1.542-1.122-.432-.466-.768-1.021-1-1.649-.232-.627-.35-1.297-.35-1.993 0-.695.118-1.372.35-2.01.232-.64.569-1.2 1-1.666.429-.465.948-.842 1.542-1.122.594-.28 1.261-.422 1.984-.422.627 0 1.251.106 1.854.315.606.21 1.156.54 1.633.983.478.444.862.999 1.14 1.65zm-4.869-6.128c-1.288 0-2.449.235-3.452.696-1.004.464-1.855 1.086-2.53 1.852-.677.768-1.203 1.671-1.564 2.685-.361 1.018-.545 2.083-.545 3.167 0 1.083.184 2.143.545 3.15.361 1.003.887 1.9 1.564 2.669.676.766 1.528 1.388 2.53 1.85 1.003.462 2.165.696 3.452.696 1.016 0 1.97-.171 2.837-.509.866-.337 1.59-.804 2.15-1.387l.164-.171v1.62h3.456V18.28h-3.456v1.62l-.164-.171c-.56-.583-1.283-1.05-2.15-1.388-.868-.337-1.823-.509-2.837-.509zM152.268 34.151L155.723 34.151 155.723 18.279 152.268 18.279zM176.456 11.617c-1.075 0-1.95.875-1.95 1.95v.07c0 1.075.875 1.95 1.95 1.95 1.077 0 1.952-.875 1.952-1.95v-.07c0-1.075-.875-1.95-1.952-1.95M174.746 34.151L178.201 34.151 178.201 18.279 174.746 18.279zM139.605 28.094v-9.815h-3.456v9.815c0 1.8-1.465 3.265-3.265 3.265s-3.266-1.465-3.266-3.265v-9.815h-3.455v9.662c0 3.706 3.015 6.72 6.72 6.72 1.886 0 3.634-.765 4.924-2.156l.07-.075.07.075c1.271 1.37 3.066 2.157 4.923 2.157 3.706 0 6.721-3.015 6.721-6.721v-9.662h-3.455v9.815c0 1.8-1.465 3.265-3.266 3.265-1.8 0-3.265-1.465-3.265-3.265M168.573 24.972c2.222-2.316 3.326-5.15 3.789-6.65l.013-.043h-3.577c-.84 2.189-2.765 5.798-6.527 6.606V11.883h-3.36v22.268h3.36v-5.846c1.283-.184 2.5-.596 3.62-1.226l3.73 7.072h3.795l-4.843-9.179M66.972 20.351c-.727.728-1.308 1.6-1.726 2.59-.419.99-.631 2.086-.631 3.255 0 1.17.212 2.27.631 3.271.418 1.003 1 1.88 1.726 2.606.726.727 1.597 1.302 2.588 1.71.992.407 2.087.613 3.256.613h4.62v-3.095h-4.409c-.704 0-1.362-.133-1.955-.395-.593-.263-1.107-.626-1.528-1.082-.42-.455-.754-.996-.994-1.61-.238-.613-.358-1.292-.358-2.018 0-.726.12-1.405.358-2.018.24-.614.574-1.156.994-1.61.423-.457.937-.816 1.53-1.067.592-.25 1.25-.377 1.953-.377h4.408v-3.096h-4.619c-1.168 0-2.264.207-3.256.614-.993.409-1.863.984-2.588 1.71M52 0v52H0V0h52zM37 11h-9.115C19.112 11 12 17.94 12 26.5 12 35.06 19.112 42 27.885 42H37V11z"/>
    </g>
</svg>
