<svg width="119" height="28" viewBox="0 0 119 28" fill="none" xmlns="http://www.w3.org/2000/svg">
<path d="M6.38425 24.0333C5.55484 23.8731 4.75818 23.5527 3.99425 23.072C3.23032 22.5913 2.5537 21.9848 1.96438 21.2523C1.37507 20.5199 0.894887 19.6844 0.523836 18.746C0.174612 17.7847 0 16.7432 0 15.6217C0 14.5001 0.174612 13.4701 0.523836 12.5317C0.894887 11.5703 1.37507 10.7234 1.96438 9.991C2.5537 9.25856 3.23032 8.66345 3.99425 8.20567C4.75818 7.725 5.55484 7.39311 6.38425 7.21V3.77667C7.67056 3.42743 9.02671 3.42743 10.313 3.77667V7.03833C11.0769 7.22144 11.7645 7.49611 12.3756 7.86233C12.9868 8.20567 13.5106 8.56044 13.9471 8.92667C14.4491 9.33867 14.8748 9.79644 15.224 10.3L12.4411 13.2183C12.1355 12.8292 11.7863 12.4859 11.3934 12.1883C11.0442 11.9366 10.6295 11.7077 10.1493 11.5017C9.66914 11.2728 9.12348 11.1583 8.51233 11.1583C7.94485 11.1583 7.4101 11.2728 6.90809 11.5017C6.40608 11.7306 5.96955 12.0396 5.5985 12.4287C5.22745 12.8178 4.93279 13.287 4.71452 13.8363C4.51808 14.3857 4.41987 14.9808 4.41987 15.6217C4.41987 16.2626 4.51808 16.8577 4.71452 17.407C4.93279 17.9563 5.22745 18.4256 5.5985 18.8147C5.96955 19.2038 6.40608 19.5128 6.90809 19.7417C7.4101 19.9706 7.94485 20.085 8.51233 20.085C9.12348 20.085 9.66914 19.982 10.1493 19.776C10.6295 19.5471 11.0442 19.3068 11.3934 19.055C11.7863 18.7574 12.1355 18.4141 12.4411 18.025L15.224 20.9433C14.8748 21.4469 14.4491 21.9047 13.9471 22.3167C13.5106 22.6829 12.9868 23.0491 12.3756 23.4153C11.7645 23.7587 11.0769 24.0219 10.313 24.205V27.4667C9.02671 27.8159 7.67056 27.8159 6.38425 27.4667V24.0333Z" fill="url(#paint0_linear)"/>
<path d="M17.173 0H21.5929V9.61333H21.7566C22.1058 9.10978 22.5096 8.652 22.968 8.24C23.3608 7.89667 23.8519 7.58767 24.4412 7.313C25.0306 7.01545 25.7181 6.86667 26.5038 6.86667C27.3114 6.86667 28.0754 7.03834 28.7956 7.38167C29.5159 7.70211 30.138 8.17133 30.6618 8.78933C31.2075 9.38445 31.6331 10.1169 31.9386 10.9867C32.2442 11.8564 32.397 12.8292 32.397 13.905V24.0333H27.9771V14.5917C27.9771 13.5617 27.7152 12.7606 27.1914 12.1883C26.6675 11.6161 25.9473 11.33 25.0306 11.33C24.0484 11.33 23.2299 11.6848 22.5751 12.3943C21.9203 13.081 21.5929 13.9851 21.5929 15.1067V24.0333H17.173V0Z" fill="url(#paint1_linear)"/>
<path d="M43.1883 24.3767C42.0097 24.3767 40.8965 24.1478 39.8489 23.69C38.823 23.2322 37.9172 22.6028 37.1315 21.8017C36.3675 21.0006 35.7673 20.0736 35.3308 19.0207C34.8943 17.9678 34.676 16.8348 34.676 15.6217C34.676 14.4314 34.8943 13.3099 35.3308 12.257C35.7673 11.1812 36.3675 10.2428 37.1315 9.44167C37.8954 8.64056 38.7794 8.01111 39.7834 7.55333C40.7874 7.09556 41.8678 6.86667 43.0246 6.86667C44.1378 6.86667 45.1745 7.09556 46.1349 7.55333C47.1171 7.98822 47.9683 8.58333 48.6886 9.33867C49.4089 10.094 49.9764 10.9867 50.3911 12.0167C50.8276 13.0238 51.0459 14.111 51.0459 15.2783C51.0459 15.5988 51.035 15.8849 51.0131 16.1367C50.9913 16.3656 50.9695 16.5716 50.9476 16.7547C50.9258 16.9836 50.904 17.1781 50.8822 17.3383H39.2596C39.4996 18.1166 39.958 18.8032 40.6346 19.3983C41.3331 19.9706 42.2934 20.2567 43.5157 20.2567C44.2142 20.2567 44.8253 20.1651 45.3491 19.982C45.873 19.7989 46.3204 19.5814 46.6915 19.3297C47.1062 19.055 47.4663 18.7346 47.7719 18.3683L50.0637 21.63C49.5835 22.1336 48.9942 22.5913 48.2957 23.0033C47.7064 23.3467 46.9861 23.6671 46.1349 23.9647C45.2837 24.2393 44.3015 24.3767 43.1883 24.3767ZM46.4623 13.905C46.2222 13.1268 45.7857 12.4516 45.1527 11.8793C44.5416 11.2842 43.7776 10.9867 42.8609 10.9867C41.9442 10.9867 41.1694 11.2842 40.5364 11.8793C39.9253 12.4516 39.4996 13.1268 39.2596 13.905H46.4623Z" fill="url(#paint2_linear)"/>
<path d="M60.5506 24.3767C59.6121 24.3767 58.7063 24.1707 57.8332 23.7587C56.9602 23.3238 56.1853 22.7172 55.5087 21.939C54.8539 21.1608 54.3301 20.2338 53.9372 19.158C53.5443 18.0822 53.3479 16.9034 53.3479 15.6217C53.3479 14.3399 53.5443 13.1611 53.9372 12.0853C54.3301 11.0096 54.8539 10.094 55.5087 9.33867C56.1853 8.56045 56.9602 7.95389 57.8332 7.519C58.7063 7.08411 59.6121 6.86667 60.5506 6.86667C61.4019 6.86667 62.144 7.01545 62.7769 7.313C63.4099 7.58767 63.9446 7.89667 64.3812 8.24C64.8832 8.652 65.2979 9.10978 65.6253 9.61333H65.789V0H70.2088V24.0333H65.789V21.63H65.6253C65.2979 22.1336 64.8832 22.5913 64.3812 23.0033C63.9446 23.3467 63.4099 23.6671 62.7769 23.9647C62.144 24.2393 61.4019 24.3767 60.5506 24.3767ZM61.8602 20.085C62.4277 20.085 62.9624 19.9706 63.4645 19.7417C63.9665 19.5128 64.403 19.2038 64.774 18.8147C65.1451 18.4256 65.4288 17.9563 65.6253 17.407C65.8436 16.8577 65.9527 16.2626 65.9527 15.6217C65.9527 14.9808 65.8436 14.3857 65.6253 13.8363C65.4288 13.287 65.1451 12.8178 64.774 12.4287C64.403 12.0396 63.9665 11.7306 63.4645 11.5017C62.9624 11.2728 62.4277 11.1583 61.8602 11.1583C61.2927 11.1583 60.758 11.2728 60.256 11.5017C59.754 11.7306 59.3174 12.0396 58.9464 12.4287C58.5753 12.8178 58.2807 13.287 58.0624 13.8363C57.866 14.3857 57.7677 14.9808 57.7677 15.6217C57.7677 16.2626 57.866 16.8577 58.0624 17.407C58.2807 17.9563 58.5753 18.4256 58.9464 18.8147C59.3174 19.2038 59.754 19.5128 60.256 19.7417C60.758 19.9706 61.2927 20.085 61.8602 20.085Z" fill="url(#paint3_linear)"/>
<path d="M79.8709 24.3767C78.9324 24.3767 78.0266 24.1707 77.1535 23.7587C76.2804 23.3238 75.5056 22.7172 74.829 21.939C74.1742 21.1608 73.6503 20.2338 73.2575 19.158C72.8646 18.0822 72.6682 16.9034 72.6682 15.6217C72.6682 14.3399 72.8646 13.1611 73.2575 12.0853C73.6503 11.0096 74.1742 10.094 74.829 9.33867C75.5056 8.56045 76.2804 7.95389 77.1535 7.519C78.0266 7.08411 78.9324 6.86667 79.8709 6.86667C80.7221 6.86667 81.4642 7.01545 82.0972 7.313C82.7302 7.58767 83.2649 7.89667 83.7014 8.24C84.2035 8.652 84.6182 9.10978 84.9456 9.61333H85.1093V0H89.5291V24.0333H85.1093V21.63H84.9456C84.6182 22.1336 84.2035 22.5913 83.7014 23.0033C83.2649 23.3467 82.7302 23.6671 82.0972 23.9647C81.4642 24.2393 80.7221 24.3767 79.8709 24.3767ZM81.1805 20.085C81.748 20.085 82.2827 19.9706 82.7847 19.7417C83.2867 19.5128 83.7233 19.2038 84.0943 18.8147C84.4654 18.4256 84.7491 17.9563 84.9456 17.407C85.1638 16.8577 85.273 16.2626 85.273 15.6217C85.273 14.9808 85.1638 14.3857 84.9456 13.8363C84.7491 13.287 84.4654 12.8178 84.0943 12.4287C83.7233 12.0396 83.2867 11.7306 82.7847 11.5017C82.2827 11.2728 81.748 11.1583 81.1805 11.1583C80.613 11.1583 80.0782 11.2728 79.5762 11.5017C79.0742 11.7306 78.6377 12.0396 78.2667 12.4287C77.8956 12.8178 77.6009 13.287 77.3827 13.8363C77.1862 14.3857 77.088 14.9808 77.088 15.6217C77.088 16.2626 77.1862 16.8577 77.3827 17.407C77.6009 17.9563 77.8956 18.4256 78.2667 18.8147C78.6377 19.2038 79.0742 19.5128 79.5762 19.7417C80.0782 19.9706 80.613 20.085 81.1805 20.085Z" fill="url(#paint4_linear)"/>
<path d="M97.0631 24.3767C96.321 24.3767 95.6444 24.2622 95.0332 24.0333C94.4439 23.7816 93.931 23.4382 93.4945 23.0033C93.0798 22.5684 92.7524 22.0649 92.5123 21.4927C92.2722 20.8976 92.1521 20.2567 92.1521 19.57C92.1521 18.1967 92.5668 17.0293 93.3963 16.068C94.2475 15.0838 95.4152 14.4543 96.8994 14.1797L101.974 13.2183C101.887 12.6232 101.603 12.1082 101.123 11.6733C100.664 11.2156 100.021 10.9867 99.1912 10.9867C98.6237 10.9867 98.1108 11.0897 97.6524 11.2957C97.2159 11.4788 96.8448 11.6962 96.5393 11.948C96.1682 12.2227 95.8517 12.5317 95.5898 12.875L92.9706 10.1283C93.429 9.53322 93.9856 8.99533 94.6404 8.51467C95.2079 8.10267 95.8954 7.725 96.703 7.38167C97.5106 7.03834 98.4491 6.86667 99.5186 6.86667C100.544 6.86667 101.472 7.03834 102.301 7.38167C103.153 7.725 103.884 8.20567 104.495 8.82367C105.106 9.41878 105.575 10.1283 105.903 10.9523C106.23 11.7534 106.394 12.6232 106.394 13.5617V24.0333H101.974V21.9733H101.81C101.461 22.4311 101.057 22.8317 100.599 23.175C100.206 23.4954 99.7041 23.7816 99.093 24.0333C98.5037 24.2622 97.827 24.3767 97.0631 24.3767ZM98.5364 20.6C99.5186 20.6 100.337 20.2567 100.992 19.57C101.647 18.8604 101.974 17.9449 101.974 16.8233V16.48L98.3727 17.1667C97.8052 17.2811 97.3578 17.4871 97.0304 17.7847C96.7248 18.0822 96.572 18.4484 96.572 18.8833C96.572 19.4098 96.7357 19.8332 97.0631 20.1537C97.3905 20.4512 97.8816 20.6 98.5364 20.6Z" fill="url(#paint5_linear)"/>
<path d="M109.342 7.21H113.762V9.61333H113.925C114.275 9.10978 114.678 8.652 115.137 8.24C115.53 7.89667 116.021 7.58767 116.61 7.313C117.199 7.01545 117.887 6.86667 118.673 6.86667H119V11.845C118.891 11.8221 118.771 11.7992 118.64 11.7763C118.509 11.7534 118.345 11.7306 118.149 11.7077C117.974 11.6848 117.767 11.6733 117.527 11.6733C116.457 11.6733 115.562 12.0739 114.842 12.875C114.122 13.6761 113.762 14.7633 113.762 16.1367V24.0333H109.342V7.21Z" fill="url(#paint6_linear)"/>
<defs>
<linearGradient id="paint0_linear" x1="49.7969" y1="-1.47527e-07" x2="56.1725" y2="57.1623" gradientUnits="userSpaceOnUse">
<stop stop-color="#FFC000"/>
<stop offset="1" stop-color="#F1A049"/>
</linearGradient>
<linearGradient id="paint1_linear" x1="49.7969" y1="-1.47527e-07" x2="56.1725" y2="57.1623" gradientUnits="userSpaceOnUse">
<stop stop-color="#FFC000"/>
<stop offset="1" stop-color="#F1A049"/>
</linearGradient>
<linearGradient id="paint2_linear" x1="49.7969" y1="-1.47527e-07" x2="56.1725" y2="57.1623" gradientUnits="userSpaceOnUse">
<stop stop-color="#FFC000"/>
<stop offset="1" stop-color="#F1A049"/>
</linearGradient>
<linearGradient id="paint3_linear" x1="49.7969" y1="-1.47527e-07" x2="56.1725" y2="57.1623" gradientUnits="userSpaceOnUse">
<stop stop-color="#FFC000"/>
<stop offset="1" stop-color="#F1A049"/>
</linearGradient>
<linearGradient id="paint4_linear" x1="49.7969" y1="-1.47527e-07" x2="56.1725" y2="57.1623" gradientUnits="userSpaceOnUse">
<stop stop-color="#FFC000"/>
<stop offset="1" stop-color="#F1A049"/>
</linearGradient>
<linearGradient id="paint5_linear" x1="49.7969" y1="-1.47527e-07" x2="56.1725" y2="57.1623" gradientUnits="userSpaceOnUse">
<stop stop-color="#FFC000"/>
<stop offset="1" stop-color="#F1A049"/>
</linearGradient>
<linearGradient id="paint6_linear" x1="49.7969" y1="-1.47527e-07" x2="56.1725" y2="57.1623" gradientUnits="userSpaceOnUse">
<stop stop-color="#FFC000"/>
<stop offset="1" stop-color="#F1A049"/>
</linearGradient>
</defs>
</svg>
